<svg width="10" height="10" viewBox="0 0 10 10" fill="none" xmlns="http://www.w3.org/2000/svg">
<path d="M8.3312 3.2022C8.54324 3.04267 8.80997 2.97391 9.07271 3.01104C9.33545 3.04818 9.57267 3.18816 9.7322 3.4002C9.89173 3.61224 9.96049 3.87897 9.92336 4.14171C9.88623 4.40445 9.74624 4.64167 9.5342 4.8012L5.5692 7.7882C5.39575 7.91897 5.18443 7.98971 4.9672 7.98971C4.74997 7.98971 4.53866 7.91897 4.3652 7.7882L0.399201 4.8012C0.294144 4.72215 0.205686 4.62317 0.138879 4.50993C0.0720719 4.39669 0.0282236 4.2714 0.0098376 4.14121C-0.0085484 4.01102 -0.00111198 3.87849 0.0317223 3.75117C0.0645565 3.62386 0.122146 3.50426 0.201201 3.3992C0.280257 3.29414 0.379231 3.20569 0.492473 3.13888C0.605715 3.07207 0.731006 3.02822 0.861194 3.00984C0.991382 2.99145 1.12392 2.99889 1.25123 3.03172C1.37854 3.06456 1.49814 3.12215 1.6032 3.2012L4.9672 5.7362L8.3312 3.2022Z" fill="#CDCDCD"/>
</svg>
