<svg width="12" height="12" viewBox="0 0 12 12" fill="none" xmlns="http://www.w3.org/2000/svg">
<path d="M6.99915 0.724365H4.99359V1.06183H4.26932V0.677124C4.26923 0.303772 4.57281 0 4.94598 0H7.04675C7.41992 0 7.72351 0.303772 7.72351 0.677124V1.06183H6.99915V0.724365Z" fill="#617282"/>
<path d="M2.59663 3.93164H9.39607C9.58238 3.93164 9.72904 4.09058 9.71403 4.27634L9.14558 11.3054C9.1139 11.6978 8.7866 12 8.39338 12H3.5994C3.20619 12 2.87888 11.6978 2.84721 11.3053L2.27876 4.27634C2.26365 4.09058 2.41032 3.93164 2.59663 3.93164ZM7.74967 11.2503C7.75727 11.2507 7.76487 11.251 7.77238 11.251C7.96226 11.251 8.12165 11.1031 8.13346 10.9111L8.48969 5.14059C8.50196 4.94092 8.35008 4.76907 8.15049 4.75681C7.95155 4.74472 7.77897 4.89624 7.7667 5.09601L7.41056 10.8665C7.3982 11.0662 7.55009 11.2379 7.74967 11.2503ZM5.63014 10.8888C5.63014 11.0888 5.79228 11.2509 5.99232 11.2509C6.19236 11.2509 6.3545 11.0888 6.3545 10.8888V5.11826C6.3545 4.91821 6.19236 4.75607 5.99232 4.75607C5.79237 4.75607 5.63014 4.91821 5.63014 5.11826V10.8888ZM3.503 5.13959L3.84312 10.9101C3.85438 11.1025 4.01405 11.2509 4.20429 11.2509C4.21143 11.2509 4.21867 11.2507 4.2259 11.2504C4.42558 11.2386 4.57792 11.0672 4.56611 10.8675L4.22608 5.09692C4.21436 4.89725 4.04353 4.7449 3.8433 4.75671C3.64362 4.76843 3.49128 4.93991 3.503 5.13959Z" fill="#617282"/>
<path d="M1.34419 2.81396L1.58204 2.10095C1.64476 1.91299 1.82072 1.78619 2.01893 1.78619H9.97386C10.172 1.78619 10.348 1.91299 10.4107 2.10095L10.6485 2.81396C10.6944 2.95148 10.6347 3.09174 10.5233 3.16168C10.4779 3.19016 10.4241 3.20728 10.3651 3.20728H1.62764C1.56859 3.20728 1.51475 3.19016 1.46943 3.16159C1.35802 3.09164 1.29832 2.95139 1.34419 2.81396Z" fill="#617282"/>
</svg>
